# xmcd
#
# Track frame offsets: 
#        150
#        21282
#        36370
#        48970
#        63840
#        78315
#        100435
#        115015
#        130325
#        141285
#        154070
#
# Disc length: 2210 seconds
#
# Revision: 0
# Processed by: cddbd v1.5.2PL0 Copyright (c) Steve Scherf et al.
# Submitted via: ExactAudioCopy v0.95a5
#
DISCID=9008a00b
DTITLE=MAX - adiós méxico
DYEAR=1994
DGENRE=Country
TTITLE0=the fisherman blues
TTITLE1=suspicious minds
TTITLE2=adiós méxico
TTITLE3=for ever young
TTITLE4=true confessions
TTITLE5=paper in fire
TTITLE6=solo vale
TTITLE7=sacramento
TTITLE8=i'm in a hurry
TTITLE9=crazy
TTITLE10=i'm moving on
EXTD=
EXTT0=
EXTT1=
EXTT2=
EXTT3=
EXTT4=
EXTT5=
EXTT6=
EXTT7=
EXTT8=
EXTT9=
EXTT10=
PLAYORDER=
